<?xml version="1.0" encoding="UTF-8" standalone="no"?>
<!-- Created with Inkscape (http://www.inkscape.org/) -->

<svg
   width="41.291027mm"
   height="104.69623mm"
   viewBox="0 0 41.291027 104.69623"
   version="1.1"
   id="svg1"
   xml:space="preserve"
   xmlns="http://www.w3.org/2000/svg"
   xmlns:svg="http://www.w3.org/2000/svg"><defs
     id="defs1" /><g
     id="layer1"
     transform="translate(-36.63756,-65.07356)"><path
       style="opacity:1;fill:#d25b1c;fill-opacity:1;stroke-width:0.264583"
       d="m 36.77139,67.382557 c 0.83534,-1.73813 3.50625,-2.79424 4.4569,-2.0862 0.94759,0.70576 2.64123,2.3817 3.9472,2.75 1.05261,0.29684 5.05551,1.44309 5.3943,3.80559 0.62722,4.37378 1.67035,9.83772 5.83091,12.03062 -14.60345,3.36637 -14.74569,3.31896 -14.74569,3.31896 0,0 -0.18966,-3.98276 -1.28017,-5.64224 -1.09052,-1.65948 -1.61207,-4.03017 -0.66379,-4.93104 -0.3319,-3.88793 -0.42673,-3.84051 -0.42673,-3.84051 0,0 -3.34827,-3.66705 -2.51293,-5.40518 z"
       id="path287" /></g></svg>
