<?xml version="1.0" encoding="UTF-8" standalone="no"?>
<!-- Created with Inkscape (http://www.inkscape.org/) -->

<svg
   width="64.649445mm"
   height="160.09634mm"
   viewBox="0 0 64.649445 160.09635"
   version="1.1"
   id="svg1"
   xml:space="preserve"
   inkscape:version="1.4.2 (f4327f4, 2025-05-13)"
   sodipodi:docname="8.svg"
   xmlns:inkscape="http://www.inkscape.org/namespaces/inkscape"
   xmlns:sodipodi="http://sodipodi.sourceforge.net/DTD/sodipodi-0.dtd"
   xmlns="http://www.w3.org/2000/svg"
   xmlns:svg="http://www.w3.org/2000/svg"><sodipodi:namedview
     id="namedview1"
     pagecolor="#ffffff"
     bordercolor="#000000"
     borderopacity="0.25"
     inkscape:showpageshadow="2"
     inkscape:pageopacity="0.0"
     inkscape:pagecheckerboard="0"
     inkscape:deskcolor="#d1d1d1"
     inkscape:document-units="mm"
     inkscape:zoom="0.98646753"
     inkscape:cx="244.30606"
     inkscape:cy="302.59486"
     inkscape:window-width="1920"
     inkscape:window-height="1017"
     inkscape:window-x="1912"
     inkscape:window-y="-8"
     inkscape:window-maximized="1"
     inkscape:current-layer="layer1" /><defs
     id="defs1" /><g
     inkscape:label="Slānis 1"
     inkscape:groupmode="layer"
     id="layer1"
     transform="translate(-16.997549,-12.231134)"><path
       style="fill:#b98935;stroke-width:0.264583"
       d="m 47.54074,126.19327 c 0,0 0.268211,3.48676 0,4.22435 -0.268213,0.73758 -1.274014,0.067 -1.139907,1.1399 0.134107,1.07286 1.139907,10.72852 1.810438,11.86842 0.670534,1.13991 2.078651,14.14824 1.206958,15.01993 -0.871691,0.87169 -0.938745,2.1457 -0.402318,3.68793 0.536425,1.54222 -0.40232,9.11924 0.469371,9.58861 0.871694,0.46937 2.078651,0.80464 3.017396,0.46937 0.938744,-0.33527 6.168898,-3.82203 6.638269,-5.02899 0.469373,-1.20696 -0.134107,-4.89489 -0.201158,-5.43131 -0.06705,-0.53643 0.469371,-4.09025 1.139904,-4.82784 0.670531,-0.73758 1.743385,-2.41391 3.55382,-3.21855 1.810438,-0.80464 1.944545,-2.74918 2.078652,-3.28561 0.134106,-0.53642 7.174695,-6.03479 7.509959,-7.44291 0.335267,-1.40811 1.039326,-2.09541 1.324303,-2.54802 0.284975,-0.45261 0.586716,-4.22435 2.933579,-6.23595 2.346862,-2.0116 -0.704059,-4.86136 0.06705,-5.53189 0.771112,-0.67053 4.693727,-1.5087 4.023193,-3.98967 -0.670531,-2.48097 -1.820254,-3.02748 -1.820254,-3.02748 z"
       id="path1" /></g></svg>
