<?xml version="1.0" encoding="UTF-8" standalone="no"?>
<!-- Created with Inkscape (http://www.inkscape.org/) -->

<svg
   width="41.291027mm"
   height="104.69623mm"
   viewBox="0 0 41.291027 104.69623"
   version="1.1"
   id="svg1"
   xml:space="preserve"
   inkscape:version="1.4.2 (f4327f4, 2025-05-13)"
   sodipodi:docname="full-carcas-hq.svg"
   xmlns:inkscape="http://www.inkscape.org/namespaces/inkscape"
   xmlns:sodipodi="http://sodipodi.sourceforge.net/DTD/sodipodi-0.dtd"
   xmlns="http://www.w3.org/2000/svg"
   xmlns:svg="http://www.w3.org/2000/svg"><sodipodi:namedview
     id="namedview1"
     pagecolor="#ffffff"
     bordercolor="#000000"
     borderopacity="0.25"
     inkscape:showpageshadow="2"
     inkscape:pageopacity="0.0"
     inkscape:pagecheckerboard="0"
     inkscape:deskcolor="#d1d1d1"
     inkscape:document-units="mm"
     inkscape:zoom="1"
     inkscape:cx="390"
     inkscape:cy="114.5"
     inkscape:window-width="1920"
     inkscape:window-height="1017"
     inkscape:window-x="1912"
     inkscape:window-y="-8"
     inkscape:window-maximized="1"
     inkscape:current-layer="layer1"
     inkscape:clip-to-page="false" /><defs
     id="defs1" /><g
     inkscape:label="Slānis 1"
     inkscape:groupmode="layer"
     id="layer1"
     transform="translate(-36.63756,-65.07356)"><path
       style="opacity:1;fill:#d25b1c;fill-opacity:1;stroke-width:0.264583"
       d="m 36.77139,67.382557 c 0.83534,-1.73813 3.50625,-2.79424 4.4569,-2.0862 0.94759,0.70576 2.64123,2.3817 3.9472,2.75 1.05261,0.29684 5.05551,1.44309 5.3943,3.80559 0.62722,4.37378 1.67035,9.83772 5.83091,12.03062 -14.60345,3.36637 -14.74569,3.31896 -14.74569,3.31896 0,0 -0.18966,-3.98276 -1.28017,-5.64224 -1.09052,-1.65948 -1.61207,-4.03017 -0.66379,-4.93104 -0.3319,-3.88793 -0.42673,-3.84051 -0.42673,-3.84051 0,0 -3.34827,-3.66705 -2.51293,-5.40518 z"
       id="path287"
       sodipodi:nodetypes="zsssccsccz" /><path
       style="opacity:1;fill:#d25b1c;fill-opacity:1;stroke-width:0.264583"
       d="m 56.66528,85.084887 c 0,0 14.1245,3.55349 15.05994,18.894763 -30.86962,8.04481 -32.08569,8.04481 -32.08569,8.04481 l 2.28006,-23.620613 z"
       id="path288"
       sodipodi:nodetypes="ccccc" /><path
       style="opacity:1;fill:#d25b1c;fill-opacity:1;stroke-width:0.264583"
       d="m 43.26328,112.95532 3.29852,7.03372 c 0,0 11.31886,-3.75783 22.26355,0.63876 1.96443,-10.10279 1.98782,-10.14956 1.98782,-10.14956 l 0.10524,-0.59635 c 0,0 1.25115,0.22217 1.37977,-0.3274 0.12863,-0.54958 -0.23386,-1.98782 -0.23386,-1.98782 0,0 -0.44433,-0.99391 -0.60804,-1.11084 -0.1637,-0.11693 0.26894,-0.88867 0.26894,-0.88867 z"
       id="path289"
       sodipodi:nodetypes="cccccscscc" /><path
       style="opacity:1;fill:#d25b1c;fill-opacity:1;stroke-width:0.264583"
       d="m 68.45117,122.09319 c 0,0 -0.0654,16.36672 5.55701,27.74386 -0.72761,0 -8.64397,-2.79086 -16.47831,0.0155 C 57.3194,149.33804 46.8892,121.0642 46.8892,121.0642 c 0,0 11.36563,-3.1805 21.56197,1.02899 z"
       id="path290"
       sodipodi:nodetypes="ccccc" /><path
       style="opacity:1;fill:#d25b1c;fill-opacity:1;stroke-width:0.264583"
       d="m 57.34366,151.00354 c 0,0 -0.19044,15.3965 0.10722,15.62801 0.29765,0.23151 3.77031,3.04271 4.59713,3.10886 0.82682,0.0661 15.875,0 15.875,0 0,0 0.33073,-9.72344 -4.10104,-18.75234 -0.62839,0.0331 -9.50792,-2.58181 -16.47831,0.0155 z"
       id="path292" /></g></svg>
