<?xml version="1.0" encoding="UTF-8" standalone="no"?>
<!-- Created with Inkscape (http://www.inkscape.org/) -->

<svg
   width="61.760921mm"
   height="109.12775mm"
   viewBox="0 0 61.760922 109.12775"
   version="1.1"
   id="svg1"
   xml:space="preserve"
   inkscape:version="1.4.2 (f4327f4, 2025-05-13)"
   sodipodi:docname="full-carcas-fq.svg"
   xmlns:inkscape="http://www.inkscape.org/namespaces/inkscape"
   xmlns:sodipodi="http://sodipodi.sourceforge.net/DTD/sodipodi-0.dtd"
   xmlns="http://www.w3.org/2000/svg"
   xmlns:svg="http://www.w3.org/2000/svg"><sodipodi:namedview
     id="namedview1"
     pagecolor="#ffffff"
     bordercolor="#000000"
     borderopacity="0.25"
     inkscape:showpageshadow="2"
     inkscape:pageopacity="0.0"
     inkscape:pagecheckerboard="0"
     inkscape:deskcolor="#d1d1d1"
     inkscape:document-units="mm"
     inkscape:zoom="1"
     inkscape:cx="464"
     inkscape:cy="314.5"
     inkscape:window-width="1920"
     inkscape:window-height="1017"
     inkscape:window-x="1912"
     inkscape:window-y="-8"
     inkscape:window-maximized="1"
     inkscape:current-layer="layer1"
     inkscape:clip-to-page="false" /><defs
     id="defs1" /><g
     inkscape:label="Slānis 1"
     inkscape:groupmode="layer"
     id="layer1"
     transform="translate(-16.997549,-12.231134)"><path
       style="opacity:1;fill:#d25b1c;fill-opacity:1;stroke-width:0.264583"
       d="M 55.73295,86.178472 42.20494,121.35888 39.61017,120.70223 32.26694,92.49859 c 0,0 15.53812,1.841618 23.46601,-6.320118 z"
       id="path291"
       sodipodi:nodetypes="ccccc" /><path
       style="opacity:1;fill:#d25b1c;fill-opacity:1;stroke-width:0.264583"
       d="m 25.98753,37.578895 c 0,0 -8.79317,21.982919 6.17393,53.600897 0.93544,10e-6 5.55783,0.481434 8.79499,-0.28547 C 39.547,83.933071 33.50454,43.925639 38.03137,41.554529 37.70396,41.297283 35.4589,40.71263 34.40652,38.374023 c -0.3274,0.09354 -3.55468,1.403165 -8.41899,-0.795128 z"
       id="path293"
       sodipodi:nodetypes="cccccc" /><path
       style="opacity:1;fill:#d25b1c;fill-opacity:1;stroke-width:0.264583"
       d="m 42.31204,91.233269 c 0,0 8.27685,-0.837067 13.9129,-6.426337 -0.0234,-15.411421 0.10722,-15.628006 0.10722,-15.628006 l 0.0916,-1.525677 c 0,0 1.11286,-5.068991 -17.69364,-0.715187 0.0451,1.311095 0.83971,10.92846 3.58196,24.295207 z"
       id="path294"
       sodipodi:nodetypes="ccccccc" /><path
       style="opacity:1;fill:#d25b1c;fill-opacity:1;stroke-width:0.264583"
       d="m 77.42506,64.015228 -1.05197,-23.84919 c 0,0 -10.19633,2.011201 -16.18317,-1.169304 -0.18709,1.683797 -0.28064,5.285255 -2.61924,4.30304 -0.18709,2.38538 -0.28702,23.361287 -0.28702,23.361287 0,0 2.63302,-2.621939 4.2664,-2.645833 1.63337,-0.02389 15.875,0 15.875,0 z"
       id="path295"
       sodipodi:nodetypes="cccccsc" /><path
       style="opacity:1;fill:#d25b1c;fill-opacity:1;stroke-width:0.264583"
       d="m 56.51234,43.299774 c 0,0 -5.00462,-6.40779 -17.42263,-1.216078 -0.72497,2.198293 -3.06943,2.84141 -0.32156,23.274999 0.20463,-0.09354 15.56935,-3.654074 17.26481,-0.18124 -0.12866,-1.344703 0.47938,-21.877681 0.47938,-21.877681 z"
       id="path296"
       sodipodi:nodetypes="ccccc" /><path
       style="opacity:1;fill:#d25b1c;fill-opacity:1;stroke-width:0.264583"
       d="m 35.46486,37.844856 c 0,0 0.93545,2.198288 3.62485,3.180506 1.37977,-0.514493 10.51262,-5.088689 18.38759,1.36113 2.22984,-1.625647 1.86413,-17.918828 -3.86485,-21.192528 -0.46772,0.467722 -9.86892,11.272093 -11.69304,7.390002 -0.8419,-0.327405 -6.12716,4.864306 -6.45456,9.26089 z"
       id="path297"
       sodipodi:nodetypes="cccccsc" /><path
       style="opacity:1;fill:#d25b1c;fill-opacity:1;stroke-width:0.264583"
       d="m 54.67079,20.664797 c 0,0 10.89793,-7.156142 16.46382,-2.432153 4.58367,5.940065 7.62386,11.365637 7.62386,11.365637 0,0 -2.8531,2.057976 -2.38538,4.396583 -0.37418,1.964431 -0.58465,3.040192 0,4.583673 -1.13423,0.152009 -9.63507,1.683798 -16.18317,-1.169304 0.0935,-1.028989 -0.74839,-16.791208 -5.51913,-16.744436 z"
       id="path298" /><path
       style="opacity:1;fill:#d25b1c;fill-opacity:1;stroke-width:0.264583"
       d="m 25.98753,35.991394 c 0,0 4.86428,2.198293 8.41898,0.795128 -0.1403,-1.122532 2.80632,-7.95127 6.45456,-9.26089 -1.77733,-0.888671 -7.95126,-4.022406 -9.96246,-8.699623 -1.02899,-0.888671 -8.55931,-6.594875 -8.55931,-6.594875 0,0 -2.8531,0 -4.16272,0.982215 -1.30962,0.982216 -1.77734,4.115951 -0.0935,6.314243 1.68379,2.198292 8.5593,7.062597 8.5593,13.517156 -0.56126,3.086962 -0.65481,2.946646 -0.65481,2.946646 z"
       id="path299" /></g></svg>
