<?xml version="1.0" encoding="UTF-8" standalone="no"?>
<!-- Created with Inkscape (http://www.inkscape.org/) -->

<svg
   width="64.649445mm"
   height="160.09634mm"
   viewBox="0 0 64.649445 160.09635"
   version="1.1"
   id="svg1"
   xml:space="preserve"
   inkscape:version="1.4.2 (f4327f4, 2025-05-13)"
   sodipodi:docname="full-carcas.svg"
   xmlns:inkscape="http://www.inkscape.org/namespaces/inkscape"
   xmlns:sodipodi="http://sodipodi.sourceforge.net/DTD/sodipodi-0.dtd"
   xmlns="http://www.w3.org/2000/svg"
   xmlns:svg="http://www.w3.org/2000/svg"><sodipodi:namedview
     id="namedview1"
     pagecolor="#ffffff"
     bordercolor="#000000"
     borderopacity="0.25"
     inkscape:showpageshadow="2"
     inkscape:pageopacity="0.0"
     inkscape:pagecheckerboard="0"
     inkscape:deskcolor="#d1d1d1"
     inkscape:document-units="mm"
     inkscape:zoom="0.98646753"
     inkscape:cx="244.30606"
     inkscape:cy="303.60857"
     inkscape:window-width="1920"
     inkscape:window-height="1017"
     inkscape:window-x="1912"
     inkscape:window-y="-8"
     inkscape:window-maximized="1"
     inkscape:current-layer="layer1" /><defs
     id="defs1" /><g
     inkscape:label="Slānis 1"
     inkscape:groupmode="layer"
     id="layer1"
     transform="translate(-16.997549,-12.231134)"><path
       style="fill:#b98935;stroke-width:0.264583"
       d="m 47.54074,126.19327 c 0,0 0.268211,3.48676 0,4.22435 -0.268213,0.73758 -1.274014,0.067 -1.139907,1.1399 0.134107,1.07286 1.139907,10.72852 1.810438,11.86842 0.670534,1.13991 2.078651,14.14824 1.206958,15.01993 -0.871691,0.87169 -0.938745,2.1457 -0.402318,3.68793 0.536425,1.54222 -0.40232,9.11924 0.469371,9.58861 0.871694,0.46937 2.078651,0.80464 3.017396,0.46937 0.938744,-0.33527 6.168898,-3.82203 6.638269,-5.02899 0.469373,-1.20696 -0.134107,-4.89489 -0.201158,-5.43131 -0.06705,-0.53643 0.469371,-4.09025 1.139904,-4.82784 0.670531,-0.73758 1.743385,-2.41391 3.55382,-3.21855 1.810438,-0.80464 1.944545,-2.74918 2.078652,-3.28561 0.134106,-0.53642 7.174695,-6.03479 7.509959,-7.44291 0.335267,-1.40811 1.039326,-2.09541 1.324303,-2.54802 0.284975,-0.45261 0.586716,-4.22435 2.933579,-6.23595 2.346862,-2.0116 -0.704059,-4.86136 0.06705,-5.53189 0.771112,-0.67053 4.693727,-1.5087 4.023193,-3.98967 -0.670531,-2.48097 -1.820254,-3.02748 -1.820254,-3.02748 z"
       id="path1" /><path
       style="fill:#b98935;stroke-width:0.264583"
       d="m 37.441665,90.679301 c 0,0 7.017242,1.706896 11.474138,-0.663795 -0.568965,9.672416 -2.90277,36.977904 -2.90277,36.977904 0,0 0,1.60928 -0.737587,1.30754 -0.335264,-1.5087 -3.218553,-9.18629 -2.212756,-12.80716 -0.804637,-2.58155 -1.676331,-9.92388 -1.743384,-11.26495 -1.005798,-2.61508 -3.877641,-13.549539 -3.877641,-13.549539 z"
       id="path2" /><path
       style="fill:#b98935;stroke-width:0.264583"
       d="m 47.876004,123.93523 32.051445,-4.49256 c 0,0 -8.71692,-8.64987 -8.649867,-11.39905 -8.582813,0.33526 -22.328724,0.067 -22.328724,0.067 z"
       id="path3" /><path
       style="fill:#b98935;stroke-width:0.264583"
       d="m 49.612129,106.1879 1.20696,-17.232675 c 0,0 6.370056,-1.20696 12.87422,-6.437115 1.743382,-1.13991 3.486767,-3.95614 9.186291,-5.1631 -0.804637,7.912286 -1.475171,8.985137 -1.139904,13.142437 -0.670534,4.492567 -1.408118,8.51576 0.20116,13.745913 -0.268213,1.74338 -0.184396,1.8272 -0.184396,1.8272 z"
       id="path4" /><path
       style="fill:#b98935;stroke-width:0.264583"
       d="m 28.981513,62.77093 c 0,0 3.319134,11.73432 3.453241,13.37712 0.234685,1.91102 0.536427,4.25788 2.447443,6.50416 1.17343,3.520305 2.38039,6.33654 2.38039,6.33654 0,0 7.241747,2.346863 11.432575,-0.469373 C 47.789943,82.35048 43.766749,59.18358 43.766749,59.18358 Z"
       id="path5" /><path
       style="fill:#b98935;stroke-width:0.264583"
       d="m 45.857149,57.59607 4.827834,29.302281 c 0,0 7.577013,-2.279812 13.07538,-6.571231 1.005797,-0.93875 5.092078,-4.95315 9.027424,-5.00057 0.37931,-4.36207 0.896454,-15.78593 1.231718,-18.40101 C 73.48308,54.31047 73.21451,51.19293 73.21451,51.19293 Z"
       id="path6" /><path
       style="fill:#b98935;stroke-width:0.264583"
       d="m 30.3008,60.21841 c 0,0 0.268214,-5.49837 -1.676331,-8.91808 C 27.819832,47.54535 26.612873,44.19269 30.233747,39.2978 28.423309,36.41451 19.304071,28.30107 17.292474,27.69759 c -0.06705,-2.0116 -1.139905,-4.09025 1.274011,-5.2972 3.486768,0.53642 20.115969,5.76657 20.115969,5.76657 l 4.693726,29.03405 z"
       id="path7" /><path
       style="fill:#b98935;stroke-width:0.264583"
       d="m 45.037992,55.07708 29.369316,-6.43712 c 0,0 -0.80464,-8.18049 0.06705,-11.36552 0.871691,-3.18503 0.972272,-3.31913 0.167632,-4.7943 -0.804637,-1.47517 -3.151502,-5.09605 -1.408118,-11.86842 -1.274011,-4.29141 -0.905219,-5.49837 -3.352662,-3.92262 -1.843963,-2.44744 -2.715654,-5.1631 -5.12957,-4.29141 -2.413918,0.8717 -8.180495,4.39199 -11.801369,4.19083 -2.950342,0.73759 -3.889086,0.16763 -5.364257,2.61508 -1.475171,2.44744 -7.610544,7.10764 -7.610544,7.10764 z"
       id="path8" /></g></svg>
