<?xml version="1.0" encoding="UTF-8" standalone="no"?>
<!-- Created with Inkscape (http://www.inkscape.org/) -->

<svg
   width="293.58478mm"
   height="293.65335mm"
   viewBox="0 0 293.58478 293.65335"
   version="1.1"
   id="svg1"
   xml:space="preserve"
   xmlns="http://www.w3.org/2000/svg"
   xmlns:svg="http://www.w3.org/2000/svg"><defs
     id="defs1" /><g
     id="layer1"
     transform="translate(41.717289,-325.95559)"><path
       style="fill:#15304d;fill-opacity:1;stroke-width:0.515363"
       d="M 94.569242,619.34434 C 73.426523,617.63158 52.352064,611.46558 34.962414,601.90443 -3.4848429,580.76546 -30.291151,544.44348 -38.952344,501.75151 c -4.040349,-19.91532 -3.633631,-43.28575 1.095243,-62.93417 4.912307,-20.41061 13.01156,-37.48252 26.173563,-55.16953 4.4350753,-5.95983 17.9710865,-19.85905 24.309949,-24.96225 50.087477,-40.32376 120.368209,-43.71366 173.325069,-8.36011 8.75342,5.84371 13.55508,9.72976 21.31405,17.24978 37.32917,36.17952 52.63591,88.85819 40.53496,139.50241 -15.85511,66.35586 -76.05069,113.35575 -144.11162,112.52033 -3.881992,-0.0476 -7.98583,-0.16177 -9.119628,-0.25363 z m 29.524538,-14.05446 c 36.42815,-5.4501 66.93715,-23.78138 89.11126,-53.54234 20.39571,-27.37408 29.62347,-65.36046 24.1294,-99.32944 -4.69209,-29.01041 -17.26559,-53.80244 -37.62767,-74.19284 -20.89765,-20.92673 -46.16434,-33.48389 -76.79253,-38.16471 -8.80086,-1.34501 -27.688498,-1.23222 -37.197589,0.22213 -19.972255,3.05462 -38.291089,10.10809 -54.794829,21.09815 -31.86884712,21.2219 -52.731402,54.21927 -58.555429,92.61435 -1.328986,8.76137 -1.323716,28.92132 0.0098,37.62155 4.72227,30.80859 18.4118718,57.1547 40.809216,78.53872 19.962148,19.05899 46.242869,31.61508 73.91102,35.31231 8.98448,1.20058 9.825418,1.24344 20.356871,1.03788 6.16997,-0.12043 12.32512,-0.57012 16.64045,-1.21576 z"
       id="path2" /><path
       style="fill:#15304d;fill-opacity:1;stroke-width:0.515363"
       d="m 71.635556,471.74611 v -46.41185 l 27.185434,0.17946 c 30.25279,0.19972 29.09684,0.0755 36.4457,3.91664 6.34497,3.31643 10.84992,8.63262 13.55817,15.9997 1.74967,4.75951 2.15976,12.99559 0.90703,18.21682 -2.03343,8.47521 -7.51058,15.57608 -14.78639,19.16988 -6.63646,3.27799 -7.88356,3.46922 -24.52883,3.76119 l -15.074385,0.26441 v 15.6578 15.6578 H 83.488921 71.635556 Z m 49.217234,-6.23821 c 1.74353,-0.96502 3.96766,-3.22366 4.83298,-4.90795 0.31809,-0.61913 0.57834,-2.71791 0.57834,-4.66396 0,-2.93272 -0.22825,-3.89027 -1.33366,-5.59508 -2.30359,-3.55265 -4.19489,-4.46623 -10.17302,-4.91399 -2.88345,-0.21598 -8.43145,-0.40571 -12.32889,-0.42164 l -7.086255,-0.029 v 10.86416 10.86416 l 11.982205,-0.17049 c 9.97852,-0.14199 12.24075,-0.3136 13.5283,-1.02624 z"
       id="path3" /><path
       style="fill:#15304d;fill-opacity:1;stroke-width:0.688662"
       d=""
       id="path4"
       transform="scale(0.26458333)" /><path
       style="fill:#15304d;fill-opacity:1;stroke-width:0.182208"
       d="m 1.7242036,488.80781 c -1.88084085,-0.66781 -2.8647354,-2.21817 -3.1693776,-4.99409 -0.4300111,-3.9183 -0.7414217,-10.44653 -0.5093898,-10.67857 0.078576,-0.0786 7.5639243,-0.53862 17.3796438,-1.06814 l 2.032748,-0.10966 0.109347,0.68969 c 0.242031,1.52658 0.470389,5.78388 0.467031,8.70686 -0.0031,2.68336 -0.05135,3.20287 -0.360992,3.88517 -0.571152,1.25857 -1.061084,1.82909 -2.065316,2.40505 -0.757798,0.43463 -1.152114,0.53866 -2.033358,0.53644 -2.247379,-0.006 -3.383805,-0.52347 -4.2686352,-1.94508 l -0.5068221,-0.81428 -0.5587198,0.99 c -0.6260058,1.10922 -1.4189001,1.85314 -2.5007924,2.34632 -0.8897694,0.40561 -2.9422505,0.43131 -4.0153669,0.0503 z m 4.1279074,-4.60824 0.7073982,-0.70739 v -1.72443 c 0,-0.94843 -0.053275,-2.47497 -0.1183889,-3.3923 l -0.1183886,-1.66787 -1.1115193,10e-4 c -0.6113354,7.9e-4 -1.6754197,0.0545 -2.3646313,0.11962 l -1.253112,0.11832 0.08245,2.86083 c 0.073955,2.56608 0.1279717,2.95268 0.5242777,3.75231 0.5053496,1.01965 1.018182,1.34051 2.1486936,1.34432 0.6832325,0.002 0.895903,-0.0974 1.5032207,-0.70471 z m 7.55263,-0.28819 c 0.946973,-0.39567 1.171946,-1.10796 1.171946,-3.71055 0,-1.19181 -0.05214,-2.54734 -0.115871,-3.01229 l -0.115871,-0.84537 -1.478454,0.002 c -2.147609,0.003 -2.829805,0.14725 -2.9494736,0.62404 -0.1670939,0.66576 0.2726096,5.55996 0.5472266,6.09101 0.233378,0.45131 0.664541,0.76362 1.379314,0.9991 0.493384,0.16254 0.913325,0.12275 1.561183,-0.14795 z"
       id="path5" /><path
       style="fill:#15304d;fill-opacity:1;stroke-width:0.182208"
       d="m 4.1945324,511.46387 c -0.3308694,-1.12741 -1.2054514,-4.01433 -1.943515,-6.41536 -1.0636616,-3.46026 -1.29450088,-4.40863 -1.1131935,-4.57341 0.3282879,-0.29835 1.7008745,-0.75851 8.0637096,-2.70334 6.8320075,-2.08825 9.9986545,-3.02561 10.2200975,-3.02527 0.09119,1.4e-4 0.343972,0.43756 0.561746,0.97205 0.424293,1.04134 3.703739,11.60112 3.703739,11.92599 0,0.21285 -1.763533,0.92803 -2.652099,1.07553 l -0.5567,0.0924 -0.67015,-2.15903 c -0.368581,-1.18747 -0.982713,-3.18396 -1.364736,-4.43664 -0.613187,-2.01069 -0.744835,-2.28485 -1.123342,-2.33938 -0.476056,-0.0686 -3.785436,0.65143 -3.908363,0.85033 -0.04284,0.0693 0.529097,2.13408 1.270966,4.58836 0.74187,2.45429 1.315393,4.55355 1.274497,4.66503 -0.100335,0.27349 -2.876876,1.01585 -3.071505,0.82122 -0.08483,-0.0848 -0.784485,-2.07179 -1.55478,-4.41546 l -1.400536,-4.26121 -0.63773,0.0505 c -0.3507517,0.0278 -1.3141795,0.2559 -2.1409509,0.50694 -1.3045871,0.39612 -1.5032209,0.51083 -1.5032209,0.86811 0,0.41408 0.7557789,3.17529 1.9242802,7.03029 0.346515,1.14318 0.6075704,2.10097 0.580123,2.12842 -0.1009118,0.10091 -2.7798694,0.80379 -3.0635736,0.80379 -0.2164143,0 -0.4507026,-0.53674 -0.8947634,-2.04985 z"
       id="path6" /><path
       style="fill:#15304d;fill-opacity:1;stroke-width:0.182208"
       d="m 15.031738,533.3289 c -0.795531,-1.32784 -2.367681,-3.99596 -3.493667,-5.92915 l -2.0472463,-3.51489 0.9486063,-0.60494 c 0.521733,-0.33272 4.064373,-2.43104 7.872532,-4.66295 3.808159,-2.23191 7.180102,-4.21152 7.493206,-4.39913 0.449121,-0.26912 0.608805,-0.2929 0.756542,-0.11265 0.647147,0.78955 6.634943,11.06158 6.660269,11.42566 0.02582,0.37129 -0.192712,0.5841 -1.292043,1.25816 -0.72772,0.4462 -1.350348,0.77806 -1.383614,0.73747 -0.03326,-0.0406 -1.022136,-1.71529 -2.197489,-3.72155 -1.175353,-2.00626 -2.290087,-3.85069 -2.477188,-4.09873 l -0.340185,-0.451 -1.156829,0.57046 c -1.35799,0.66966 -2.327393,1.43784 -2.327393,1.84431 0,0.15889 0.990553,1.99357 2.201229,4.07707 1.210676,2.0835 2.15,3.87107 2.087388,3.97238 -0.211072,0.34152 -2.472279,1.50532 -2.7315,1.40584 -0.141285,-0.0542 -1.246131,-1.76366 -2.455212,-3.79877 -1.209082,-2.03511 -2.272109,-3.81432 -2.362283,-3.95381 -0.130769,-0.20229 -0.554984,-0.0207 -2.095959,0.89724 -1.062603,0.63298 -1.932006,1.22184 -1.932006,1.30858 0,0.25561 0.664115,1.49795 2.568591,4.80495 0.986006,1.71214 1.843899,3.24631 1.906428,3.40925 0.08475,0.22087 -0.211735,0.50679 -1.164871,1.12337 -0.703209,0.4549 -1.348835,0.8271 -1.434724,0.8271 -0.08589,0 -0.807052,-1.08642 -1.602582,-2.41427 z"
       id="path8" /><path
       style="fill:#15304d;fill-opacity:1;stroke-width:0.182208"
       d="m 35.318255,545.21801 c -1.73545,-1.80386 -3.226316,-3.27975 -3.313038,-3.27975 -0.08673,0 -1.465419,1.24518 -3.063767,2.76707 l -2.906086,2.76707 -1.430656,-1.44606 -1.430655,-1.44606 7.058918,-6.74171 c 3.882406,-3.70795 7.141885,-6.74172 7.243284,-6.74172 0.101399,0 2.325891,2.21383 4.943313,4.91963 l 4.75895,4.91963 -1.223156,1.2437 -1.223153,1.24369 -3.461964,-3.57774 -3.461964,-3.57773 -1.548773,1.44969 c -1.522392,1.42501 -1.544117,1.45748 -1.275459,1.90608 0.150321,0.251 1.489197,1.74574 2.975274,3.32162 2.652062,2.81234 3.111889,3.42714 2.880098,3.85083 -0.166592,0.3045 -1.954757,1.70152 -2.177933,1.70152 -0.103331,0 -1.607786,-1.47589 -3.343233,-3.27976 z"
       id="path9" /><path
       style="fill:#15304d;fill-opacity:1;stroke-width:0.182208"
       d="m 62.953066,573.38396 c -0.601287,-0.13796 -1.749203,-0.50971 -2.55092,-0.82609 -2.279112,-0.89942 -7.016829,-3.26321 -7.129642,-3.55719 -0.08951,-0.23327 1.790113,-4.55162 6.368352,-14.63096 0.740761,-1.63084 1.390163,-3.00849 1.443114,-3.06144 0.15013,-0.15013 7.183747,3.13448 8.618415,4.02469 1.777154,1.10272 3.224406,2.67385 4.034653,4.38 0.582118,1.22578 0.67134,1.60274 0.745916,3.15141 0.274214,5.69464 -3.634899,10.28055 -9.098772,10.67407 -0.830869,0.0598 -1.752161,10e-4 -2.431116,-0.15449 z m 3.603802,-4.07778 c 1.26165,-0.55809 2.597203,-1.90445 3.273645,-3.30015 0.520115,-1.07315 0.582477,-1.37467 0.587494,-2.84047 0.0046,-1.34639 -0.06587,-1.77347 -0.393819,-2.38635 -0.643062,-1.20178 -2.318457,-2.59431 -4.155784,-3.45416 -2.527636,-1.18289 -2.508303,-1.18325 -3.099745,0.0571 -1.799349,3.77343 -4.31723,9.49957 -4.341669,9.87379 -0.03695,0.56579 0.908362,1.12211 3.341721,1.96663 2.003552,0.69535 3.352033,0.7189 4.788157,0.0836 z"
       id="path10" /><path
       style="fill:#15304d;fill-opacity:1;stroke-width:0.182208"
       d="m 88.735582,581.37256 c -5.428086,-1.42558 -8.507423,-6.13223 -7.569161,-11.56918 0.936207,-5.42502 5.165664,-8.79381 10.666706,-8.49609 3.905055,0.21135 7.197093,2.32171 8.851653,5.67437 l 0.7143,1.44738 0.0618,2.67553 c 0.0579,2.50465 0.0329,2.74711 -0.3909,3.79635 -1.405757,3.4803 -3.725621,5.62894 -6.985555,6.46998 -1.381424,0.35639 -3.995055,0.3572 -5.348853,0.002 z m 4.223104,-3.54513 c 1.74671,-0.48514 3.496768,-2.30025 4.082259,-4.23399 0.38545,-1.27306 0.436367,-3.32629 0.110194,-4.44367 -0.497724,-1.70504 -2.169372,-3.46237 -3.731348,-3.92259 -1.287147,-0.37924 -3.536508,-0.28713 -4.593106,0.18809 -1.235958,0.55588 -2.327581,1.67243 -2.945698,3.01294 -0.473036,1.02588 -0.514062,1.28879 -0.515118,3.30115 -0.0011,1.90563 0.05191,2.29417 0.411835,3.02464 0.693645,1.40774 2.13723,2.61813 3.686712,3.09117 0.674497,0.20592 2.726518,0.1955 3.49427,-0.0178 z"
       id="path11" /><path
       style="fill:#15304d;fill-opacity:1;stroke-width:0.182208"
       d="m 111.60036,582.16081 c -0.14562,-0.4042 -2.63962,-18.00303 -2.63962,-18.62645 0,-0.69243 -0.01,-0.68837 2.38448,-1.01934 l 1.56455,-0.21629 2.36481,2.43771 c 1.30064,1.34074 3.65425,3.78924 5.23024,5.44111 1.57598,1.65188 2.99667,3.07686 3.15708,3.16663 0.26066,0.14587 0.27772,0.0203 0.16049,-1.18132 -0.0721,-0.7395 -0.44645,-3.51738 -0.8318,-6.17307 -0.38534,-2.65569 -0.64543,-4.88072 -0.57797,-4.9445 0.30935,-0.29252 3.85793,-0.68091 3.85793,-0.42225 0,0.0547 0.24299,1.6741 0.53997,3.59862 0.88205,5.71578 2.19316,14.88219 2.19316,15.33308 0,0.39076 -0.12618,0.43911 -1.86764,0.7155 l -1.86764,0.29642 -2.81512,-2.96098 c -4.62357,-4.86314 -8.36366,-8.60612 -8.48161,-8.48817 -0.12015,0.12015 0.60626,5.98262 1.1877,9.58529 0.44438,2.75345 0.44874,3.0872 0.042,3.21395 -0.37969,0.11833 -2.73165,0.46306 -3.19437,0.46821 -0.17852,0.002 -0.36151,-0.0989 -0.40665,-0.22415 z"
       id="path12" /><path
       style="fill:#15304d;fill-opacity:1;stroke-width:0.182208"
       d="m 139.85348,574.50804 c -0.43266,-0.92698 -1.73036,-3.89926 -2.88376,-6.60506 -1.1534,-2.70579 -2.55154,-5.98555 -3.10697,-7.28834 l -1.00987,-2.36871 0.76297,-0.33515 c 2.2323,-0.98056 10.29883,-4.35021 11.06691,-4.62301 1.09396,-0.38854 1.17667,-0.32431 1.74182,1.35236 l 0.41698,1.23709 -0.85621,0.43729 c -0.47092,0.24051 -2.15859,1.00252 -3.75039,1.69336 -2.49985,1.08494 -3.90491,1.73001 -4.07577,1.87121 -0.20907,0.17278 1.47675,3.92421 1.76346,3.92421 0.0894,0 2.05481,-0.77894 4.36762,-1.73098 2.3128,-0.95204 4.23572,-1.73098 4.27316,-1.73098 0.17897,0 1.40232,2.978 1.27123,3.09457 -0.0827,0.0735 -1.66719,0.7704 -3.52117,1.54865 -4.21522,1.76945 -4.68395,2.00739 -4.82404,2.4488 -0.0678,0.21357 0.12773,0.92681 0.48782,1.77959 0.94702,2.24273 0.88867,2.18137 1.8337,1.9286 0.4439,-0.11872 2.47779,-0.91454 4.51976,-1.76848 2.04197,-0.85394 3.76317,-1.49305 3.8249,-1.42024 0.14947,0.17631 1.27649,3.00597 1.21835,3.05898 -0.22737,0.20729 -12.25441,5.18167 -12.52822,5.18167 -0.11309,0 -0.55961,-0.75844 -0.99228,-1.68543 z"
       id="path13" /><path
       style="fill:#15304d;fill-opacity:1;stroke-width:0.182208"
       d="m 169.7273,550.29857 c -4.10881,-2.1133 -8.11005,-4.19047 -8.89167,-4.61593 l -1.42111,-0.77356 0.72865,-0.89323 c 0.40076,-0.49128 1.04026,-1.24493 1.42111,-1.67478 l 0.69247,-0.78154 6.18944,3.46912 c 3.40419,1.90802 6.30116,3.46912 6.43771,3.46912 0.17972,0 0.13338,-0.18867 -0.16784,-0.68328 -0.64691,-1.06227 -5.2744,-8.52591 -6.32403,-10.19998 l -0.94019,-1.49951 1.06027,-1.12804 1.06028,-1.12803 2.81058,1.47797 c 1.54582,0.81288 4.40947,2.34063 6.36365,3.395 1.95419,1.05437 3.58058,1.83763 3.6142,1.74057 0.0727,-0.20985 -0.51033,-1.14323 -4.57428,-7.32293 l -3.08363,-4.68903 0.54957,-0.68613 c 0.30226,-0.37737 0.97012,-1.09609 1.48413,-1.59716 l 0.93457,-0.91105 0.33909,0.44755 c 0.5416,0.71483 3.71846,5.85812 7.16857,11.6058 l 3.18837,5.31163 -1.09467,1.24788 c -1.89951,2.16535 -1.50884,2.02747 -3.26183,1.15124 -0.84085,-0.42029 -3.55758,-1.86891 -6.0372,-3.21916 -2.47961,-1.35024 -4.59061,-2.42747 -4.69111,-2.39383 -0.1005,0.0336 1.46431,2.6359 3.47735,5.78279 3.13963,4.90803 3.63404,5.776 3.47693,6.10399 -0.31751,0.66283 -2.41634,2.84229 -2.73447,2.83952 -0.1674,-0.002 -3.66611,-1.73171 -7.77491,-3.84501 z"
       id="path14" /><path
       style="fill:#15304d;fill-opacity:1;stroke-width:0.182208"
       d="m 190.31687,525.80955 c -3.80816,-1.9514 -7.68159,-3.93726 -8.60761,-4.41303 -1.42888,-0.73411 -1.66815,-0.92039 -1.58099,-1.23081 0.0565,-0.20119 1.40572,-3.01246 2.9983,-6.24727 l 2.8956,-5.88148 1.50962,0.75527 c 0.83029,0.41539 1.53064,0.77359 1.55633,0.79598 0.0257,0.0224 -0.93774,1.98267 -2.14095,4.35617 -1.20321,2.37351 -2.18766,4.35703 -2.18766,4.40784 0,0.1238 3.64895,1.90337 3.90133,1.90266 0.1091,-2.6e-4 1.12393,-1.84517 2.25518,-4.09969 1.36608,-2.72253 2.15261,-4.09914 2.34207,-4.09914 0.15688,0 0.85267,0.29817 1.54618,0.6626 1.08179,0.56847 1.2448,0.71732 1.14733,1.0477 -0.0625,0.21181 -1.00739,2.13246 -2.09978,4.26813 -1.0924,2.13566 -1.98618,3.92156 -1.98618,3.96866 0,0.19848 3.76285,1.90584 4.09458,1.85787 0.2727,-0.0394 0.8716,-1.05091 2.40455,-4.06109 1.12276,-2.20473 2.15283,-4.07958 2.28903,-4.16633 0.16289,-0.10376 0.71252,0.075 1.60597,0.52243 0.74708,0.3741 1.38552,0.70459 1.41877,0.73444 0.0951,0.0854 -6.18017,12.4759 -6.31616,12.47124 -0.0669,-0.002 -3.23735,-1.60076 -7.04551,-3.55215 z"
       id="path15" /><path
       style="fill:#15304d;fill-opacity:1;stroke-width:0.182208"
       d="m 205.25797,506.09544 c -0.60129,-0.15178 -4.61899,-1.13676 -8.92822,-2.18884 -4.30923,-1.05208 -7.90707,-1.97988 -7.99519,-2.06178 -0.15676,-0.14569 0.49103,-3.14002 0.7807,-3.6087 0.11088,-0.17942 1.7908,0.16361 7.41421,1.51394 3.99896,0.96026 7.45274,1.78603 7.67507,1.83505 0.57167,0.12603 0.76576,-0.34069 1.78316,-4.28796 0.47785,-1.85397 0.92137,-3.4305 0.98559,-3.5034 0.12293,-0.13954 2.85619,0.45252 3.06831,0.66463 0.22875,0.22877 -1.93794,9.51978 -2.61419,11.20988 -0.33616,0.84014 -0.44702,0.86198 -2.16944,0.42718 z"
       id="path16" /><path
       style="fill:#15304d;fill-opacity:1;stroke-width:0.182208"
       d="m 199.12354,483.82674 c -3.97523,-0.0573 -7.25498,-0.14512 -7.28834,-0.19523 -0.0334,-0.0501 -0.0353,-1.00082 -0.004,-2.1127 l 0.0564,-2.0216 1.76568,0.0644 c 6.52277,0.23785 14.30167,0.41345 14.44309,0.32605 0.0926,-0.0572 0.1683,-1.35771 0.1683,-2.89 0,-1.5323 0.0537,-3.421 0.11928,-4.19713 l 0.11929,-1.41113 1.59674,0.0626 c 0.8782,0.0344 1.64749,0.11349 1.70953,0.17565 0.062,0.0622 0.0483,2.84995 -0.0306,6.19509 l -0.14339,6.08208 -2.64203,0.013 c -1.45311,0.007 -5.89448,-0.0338 -9.8697,-0.0911 z"
       id="path17" /><path
       style="fill:#15304d;fill-opacity:1;stroke-width:0.182208"
       d="m 197.05105,449.39822 c -1.32285,-0.60089 -2.25436,-2.01846 -2.40291,-3.65678 -0.25452,-2.80678 2.43057,-5.1876 5.16134,-4.57648 1.22945,0.27514 2.28525,1.04607 2.92302,2.13433 0.65181,1.11223 0.69433,2.84041 0.0986,4.0081 -1.0455,2.04936 -3.73199,3.02114 -5.78007,2.09083 z"
       id="path18" /><path
       style="fill:#15304d;fill-opacity:1;stroke-width:0.182208"
       d="m 180.64504,424.01128 c -1.57356,-1.6961 -2.08062,-2.4674 -2.08062,-3.16485 0,-0.38085 0.41259,-2.44341 0.91687,-4.58347 0.50428,-2.14005 0.86841,-3.96942 0.80918,-4.06525 -0.0592,-0.0958 -0.53331,-0.17394 -1.05353,-0.17356 -1.09859,7.9e-4 -1.38103,0.15231 -3.67897,1.97373 -0.90193,0.7149 -1.73768,1.30106 -1.85723,1.30259 -0.21165,0.003 -2.24246,-2.45635 -2.24246,-2.71534 0,-0.13698 3.93133,-3.38173 10.26625,-8.47333 l 3.79784,-3.05247 0.46289,0.42575 c 0.25459,0.23417 0.78364,0.82733 1.17566,1.31814 l 0.71278,0.89239 -0.5094,0.53764 c -0.28017,0.2957 -1.63681,1.47938 -3.01476,2.63039 -1.37795,1.15102 -2.50537,2.18107 -2.50537,2.28902 0,0.13831 1.52394,0.16206 5.16162,0.0804 l 5.16162,-0.11584 0.55297,0.58761 c 0.30413,0.32319 0.94735,1.07959 1.42939,1.68088 l 0.87643,1.09326 -5.61671,0.0911 -5.6167,0.0911 -1.15757,5.55739 c -0.63666,3.05657 -1.21971,5.74528 -1.29568,5.9749 -0.13748,0.41557 -0.14069,0.41473 -0.6945,-0.18221 z"
       id="path19" /><path
       style="fill:#15304d;fill-opacity:1;stroke-width:0.182208"
       d="m 163.98773,405.48474 c -2.88509,-0.93277 -5.35219,-3.21842 -6.46566,-5.9901 -0.4034,-1.00415 -0.45827,-1.41066 -0.45827,-3.39533 v -2.2546 l 0.74215,-1.48277 c 1.79462,-3.58556 4.89276,-5.67053 8.4457,-5.68371 2.90003,-0.0108 4.83555,0.78152 6.94378,2.84235 1.50186,1.46809 2.13641,2.46959 2.53528,4.00134 0.34972,1.34304 0.38292,3.37954 0.055,3.37499 -0.53882,-0.007 -2.74904,-0.54986 -2.96244,-0.72697 -0.1285,-0.10665 -0.28723,-0.49846 -0.35273,-0.87069 -0.39155,-2.22513 -1.53071,-3.84667 -3.23897,-4.61056 -1.42516,-0.63729 -3.3443,-0.60713 -4.7374,0.0745 -1.19348,0.58392 -2.61371,2.04257 -3.25521,3.34326 -0.60942,1.23564 -0.63498,3.97751 -0.0473,5.07129 1.22213,2.27453 3.68258,3.44221 6.2065,2.94546 l 0.76845,-0.15124 0.6721,1.3583 c 0.36966,0.74706 0.62259,1.48732 0.56207,1.64501 -0.29958,0.7807 -3.61042,1.09234 -5.41309,0.50952 z"
       id="path20" /><path
       style="fill:#15304d;fill-opacity:1;stroke-width:0.182208"
       d="m 141.1329,392.06563 c -2.56014,-0.70254 -5.44087,-3.01619 -6.57186,-5.27819 -0.53484,-1.0697 -0.54663,-1.15247 -0.54663,-3.84014 v -2.74689 l 0.76774,-1.53504 c 0.93498,-1.86943 1.89004,-3.00305 3.3532,-3.98011 4.65642,-3.10946 11.66806,-1.10802 14.09859,4.02437 0.90495,1.91093 1.14298,3.64095 0.76073,5.52915 -0.83133,4.10659 -3.60655,7.15715 -7.19122,7.90469 -1.2789,0.2667 -3.55312,0.2288 -4.67055,-0.0778 z m 4.70422,-3.71932 c 1.07141,-0.51866 2.02197,-1.59337 2.7288,-3.08517 0.52236,-1.10249 0.57181,-1.36441 0.57181,-3.02894 0,-2.10595 -0.28436,-2.84461 -1.52737,-3.9676 -1.33135,-1.20281 -2.09313,-1.49204 -3.93889,-1.49557 -1.95472,-0.004 -2.65805,0.2774 -3.9743,1.58854 -1.65492,1.64848 -2.41525,4.20876 -1.87554,6.3155 0.16233,0.63362 0.52212,1.49156 0.79954,1.90652 0.54041,0.80835 1.90727,1.82733 2.83915,2.11656 0.96178,0.29851 3.44801,0.0998 4.3768,-0.34984 z"
       id="path21" /><path
       style="fill:#15304d;fill-opacity:1;stroke-width:0.182208"
       d="m 119.80215,385.66157 c -0.20043,-0.0448 -0.77914,-0.19698 -1.28602,-0.33819 l -0.92161,-0.25677 0.39924,-2.41936 c 0.21958,-1.33065 0.71052,-4.61928 1.09096,-7.30806 0.54714,-3.86694 0.64335,-4.91859 0.46033,-5.0317 -0.12726,-0.0786 -1.26877,-0.32429 -2.53669,-0.54585 -1.26791,-0.22156 -2.33867,-0.43621 -2.37945,-0.47699 -0.12784,-0.12784 0.35404,-2.7134 0.54047,-2.89993 0.11506,-0.11513 1.20762,-0.0293 3.11061,0.24421 4.09867,0.58921 11.05443,1.75202 11.16967,1.86727 0.0528,0.0528 0.007,0.78845 -0.1027,1.63484 l -0.19865,1.5389 -2.12216,-0.31265 c -1.16719,-0.17195 -2.37896,-0.31677 -2.69283,-0.32181 l -0.57066,-0.009 -0.29462,1.68544 c -0.16203,0.92699 -0.66008,3.89928 -1.10676,6.60509 -0.87557,5.30389 -1.05274,6.01637 -1.56417,6.29008 -0.34703,0.18573 -0.39633,0.18843 -0.99496,0.0547 z"
       id="path22" /><path
       style="fill:#15304d;fill-opacity:1;stroke-width:0.182208"
       d="m 96.843865,384.68801 c -1.622452,-0.32565 -4.646319,-1.76767 -4.646319,-2.21573 0,-0.11443 0.374399,-0.84668 0.831998,-1.62723 l 0.831998,-1.41917 0.903931,0.64941 c 1.246412,0.89547 2.773153,1.33787 4.599992,1.33296 2.236795,-0.006 3.764595,-0.88528 3.764595,-2.16654 0,-1.13561 -1.02542,-1.69001 -4.373007,-2.36427 -2.893967,-0.5829 -4.10991,-1.06721 -5.215487,-2.07732 -1.673524,-1.52902 -1.996919,-3.76727 -0.841531,-5.82432 1.091358,-1.94306 2.991231,-2.87179 6.148122,-3.00542 2.438463,-0.10322 3.819703,0.1311 5.366713,0.91044 1.59482,0.80343 1.6677,0.97157 0.94001,2.16864 -1.08109,1.77842 -0.95226,1.70036 -1.96233,1.18887 -3.03431,-1.53655 -6.758432,-1.3401 -7.23932,0.38189 -0.382281,1.36889 0.502832,1.96921 3.950673,2.67952 4.018287,0.82783 5.520487,1.5615 6.456087,3.15311 0.44782,0.76182 0.50445,1.036 0.49753,2.40846 -0.0117,2.31957 -0.79325,3.70592 -2.7285,4.84007 -1.65646,0.97075 -5.064682,1.43233 -7.285155,0.98663 z"
       id="path23" /><path
       style="fill:#15304d;fill-opacity:1;stroke-width:0.182208"
       d="m 72.516676,388.0267 c -0.527111,-1.64553 -4.177334,-14.31041 -4.435967,-15.3911 -0.105696,-0.44165 -0.04552,-0.51266 0.657765,-0.7763 1.034238,-0.38771 2.561574,-0.65846 2.739271,-0.48559 0.07869,0.0765 0.611656,1.6837 1.184354,3.57144 0.572701,1.88773 1.133364,3.46249 1.245918,3.49947 0.219033,0.072 0.996775,-1.62398 2.817045,-6.14285 0.625708,-1.55334 1.226722,-2.91606 1.335588,-3.02828 0.194561,-0.20054 3.430362,-1.16612 3.899939,-1.16375 0.335812,0.002 0.255797,0.22155 -1.818248,4.99594 -0.997461,2.29614 -1.858288,4.39839 -1.912943,4.67167 -0.09005,0.45025 0.05267,0.61424 1.52041,1.74703 0.890881,0.68758 3.108052,2.31432 4.927047,3.615 1.818994,1.30067 3.291856,2.37822 3.273025,2.39456 -0.01884,0.0163 -0.985343,0.31367 -2.147805,0.66074 l -2.113569,0.63103 -2.623854,-1.93817 c -1.44312,-1.06599 -3.162586,-2.3217 -3.821033,-2.79047 l -1.197176,-0.8523 -0.397148,0.81745 c -0.52574,1.08214 -0.508256,1.37113 0.24918,4.11867 0.355481,1.28948 0.598188,2.4224 0.539353,2.5176 -0.09919,0.16049 -2.822522,1.0954 -3.190828,1.0954 -0.09034,0 -0.418981,-0.79523 -0.730324,-1.76719 z"
       id="path24" /><path
       style="fill:#15304d;fill-opacity:1;stroke-width:0.182208"
       d="m 53.795863,397.25382 c -1.414354,-0.27892 -3.224046,-1.39046 -4.569021,-2.80638 -1.919837,-2.0211 -2.757397,-4.04843 -2.76149,-6.68421 -0.0095,-6.13607 6.620941,-10.9936 12.280323,-8.99666 0.692377,0.24431 1.329277,0.51461 1.415333,0.60067 0.08715,0.0872 -0.153199,0.63533 -0.542534,1.23739 -1.048244,1.62101 -1.155636,1.69971 -2.076431,1.5217 -1.233326,-0.23843 -3.377494,-0.19337 -4.024122,0.0846 -1.653664,0.71079 -2.998248,2.66508 -3.175037,4.61476 -0.267748,2.95277 1.746843,6.08695 4.38213,6.81745 1.711528,0.47444 3.895092,0.1119 5.166399,-0.85778 0.740408,-0.56474 1.603031,-2.03037 1.88376,-3.20057 0.199654,-0.83227 0.237945,-0.87109 0.966208,-0.97947 0.41707,-0.0621 1.168281,-0.1275 1.669354,-0.14541 l 0.911042,-0.0326 0.05495,0.75225 c 0.06465,0.88509 -0.502362,2.68866 -1.185786,3.77178 -1.341046,2.12536 -4.262525,4.00462 -6.717051,4.32079 -1.5088,0.19436 -2.627828,0.18878 -3.678026,-0.0183 z"
       id="path25" /><path
       style="fill:#15304d;fill-opacity:1;stroke-width:0.182208"
       d="m 41.745265,403.93776 c -1.501159,-1.74133 -4.177102,-4.87124 -5.946542,-6.95536 l -3.217162,-3.78932 0.70017,-0.61282 c 1.377296,-1.20547 2.003785,-1.55741 2.397373,-1.34677 0.198213,0.10608 1.494523,1.52695 2.880691,3.15749 1.386171,1.63054 3.936487,4.61896 5.667372,6.64095 1.730886,2.02198 3.147066,3.71476 3.147066,3.76172 0,0.13119 -2.60471,2.31016 -2.761528,2.31016 -0.07593,0 -1.366279,-1.42472 -2.86744,-3.16605 z"
       id="path26" /><path
       style="fill:#15304d;fill-opacity:1;stroke-width:0.182208"
       d="m 28.41607,420.99059 c -0.956702,-0.77298 -4.091963,-3.36275 -6.967252,-5.75505 l -5.227797,-4.34962 0.589949,-0.74565 c 3.349102,-4.233 6.165686,-7.20597 7.4059,-7.81709 0.654855,-0.32269 1.133956,-0.40959 2.203375,-0.39967 1.786886,0.0166 3.078875,0.61032 4.346759,1.9976 1.158838,1.26796 1.547,2.37694 1.453652,4.15308 -0.09074,1.72658 -0.513244,2.55522 -2.633657,5.16532 -0.939998,1.15708 -1.709086,2.16356 -1.709086,2.23661 0,0.0731 1.065921,1.01085 2.368714,2.08397 1.302789,1.07313 2.367922,2.04977 2.366959,2.17032 -0.0032,0.39687 -1.842555,2.67916 -2.153711,2.6723 -0.167394,-0.004 -1.087106,-0.63914 -2.043805,-1.41212 z m -2.021393,-8.93761 c 2.157505,-2.49045 2.57098,-3.55525 1.953977,-5.03195 -0.420719,-1.00694 -1.75002,-1.59637 -2.931434,-1.29986 -0.603967,0.15159 -1.788136,1.24089 -3.123999,2.87372 -0.837948,1.02423 -1.005911,1.3346 -0.853656,1.57746 0.312973,0.4992 3.408599,2.93879 3.732744,2.94169 0.16546,0.002 0.715526,-0.476 1.222368,-1.06106 z"
       id="path27" /><path
       style="fill:#15304d;fill-opacity:1;stroke-width:0.182208"
       d="m 8.380078,449.14854 c -0.6654205,-0.39902 -1.1679799,-0.88469 -1.5407127,-1.48893 -0.4815284,-0.78062 -0.5525463,-1.06379 -0.5483608,-2.18651 0.00874,-2.34532 1.3988814,-4.00082 3.6782009,-4.38034 1.9824166,-0.33008 4.3170546,1.21153 4.7842846,3.15917 0.400482,1.66939 -0.102352,3.26585 -1.382725,4.39003 -0.928444,0.81518 -1.68761,1.09875 -2.941531,1.09875 -0.873671,0 -1.236441,-0.10483 -2.049156,-0.59217 z"
       id="path28" /></g></svg>
